<?xml version="1.0" encoding="UTF-8"?><svg id="Layer_2" xmlns="http://www.w3.org/2000/svg" viewBox="0 0 241.85 184.31"><defs><style>.cls-1{stroke-linecap:square;}.cls-1,.cls-2,.cls-3,.cls-4{fill:none;stroke-width:7.2px;}.cls-1,.cls-3,.cls-4{stroke:#fff;}.cls-1,.cls-4{stroke-miterlimit:10;}.cls-5{fill:#00008B;}.cls-5,.cls-6{stroke-width:0px;}.cls-2{stroke:#00008B;stroke-linecap:round;}.cls-2,.cls-3{stroke-linejoin:round;}.cls-6{fill:#FFFFFF;}</style></defs><g id="Layer_1-2"><path class="cls-5" d="M72.92,184.31V0h77.22c13.53,0,25.91,2.24,37.16,6.71,11.24,4.48,20.95,10.84,29.12,19.09,8.17,8.26,14.45,18,18.84,29.22,4.39,11.24,6.59,23.61,6.59,37.13s-2.2,25.94-6.59,37.25c-4.39,11.33-10.67,21.07-18.84,29.23-8.17,8.16-17.88,14.48-29.12,18.96-11.25,4.48-23.63,6.71-37.16,6.71h-77.22Z"/><path class="cls-2" d="M24.85,67.53c-11.74,0-21.25,9.51-21.25,21.25s9.51,21.25,21.25,21.25"/><path class="cls-2" d="M59.51,86.13c0,11.74-9.51,21.25-21.25,21.25"/><path class="cls-2" d="M40.31,139.84c-2.86,1.83-6.26,2.89-9.9,2.89-10.15,0-18.38-8.23-18.38-18.38,0-5.79,2.68-10.96,6.87-14.33"/><path class="cls-2" d="M42.46,39.34c-2.7-1.95-6.03-3.11-9.62-3.11-9.07,0-16.43,7.36-16.43,16.43s7.36,16.43,16.43,16.43c5.45,0,10.28-2.66,13.27-6.74"/><path class="cls-2" d="M72.92,22.47c0-4.41-3.57-7.98-7.98-7.98s-7.98,3.57-7.98,7.98h-1.83c-1.95-2.91-5.26-4.83-9.03-4.83-5.99,0-10.85,4.86-10.85,10.85,0,4.79,3.1,8.85,7.4,10.29"/><path class="cls-2" d="M64.94,47.86c-4.41,0-7.98-3.57-7.98-7.98"/><path class="cls-2" d="M72.92,150.4c0,10.15-8.23,19.42-18.38,19.42s-18.38-8.23-18.38-18.38c0-4.41,1.55-8.45,4.13-11.61"/><path class="cls-2" d="M40.3,139.82c3.37-4.13,8.5-6.76,14.24-6.76"/><path class="cls-5" d="M60.47,22.69c0,2.44-1.87,3.96-4.38,3.96s-4.54-1.98-4.54-4.41,2.03-4.41,4.54-4.41,4.38,2.43,4.38,4.87Z"/><circle class="cls-6" cx="175.37" cy="130.33" r="8.07"/><circle class="cls-6" cx="149.27" cy="160.35" r="8.07"/><circle class="cls-6" cx="130.65" cy="91.41" r="8.07"/><circle class="cls-6" cx="149.3" cy="23.93" r="8.07"/><circle class="cls-6" cx="175.07" cy="51.99" r="8.07"/><line class="cls-3" x1="72.92" y1="91.33" x2="123.37" y2="91.33"/><line class="cls-4" x1="72.92" y1="65.61" x2="123.37" y2="65.61"/><line class="cls-4" x1="72.92" y1="116.66" x2="123.37" y2="116.66"/><polyline class="cls-3" points="167.87 130.33 147.27 130.33 123.37 116.66 72.92 116.66"/><polyline class="cls-3" points="72.92 143.16 120.4 143.16 142.98 156.65"/><polyline class="cls-3" points="167.87 51.94 147.27 51.94 123.37 65.61 72.92 65.61"/><polyline class="cls-1" points="76.49 40.08 120.4 40.08 142.98 28.06"/></g></svg>